<?xml version="1.0" encoding="UTF-8"?>
<svg version="1.1" xmlns="http://www.w3.org/2000/svg" width="1000" height="1000">
<path d="M0 0 C13.75277092 11.87640862 26.68422329 24.7996717 37.3125 39.5625 C37.79235352 40.21927734 38.27220703 40.87605469 38.76660156 41.55273438 C49.16055839 55.80692277 58.61357871 70.34808353 66.21582031 86.28369141 C67.4108584 88.76688052 68.63786674 91.23283133 69.8671875 93.69921875 C80.51236876 115.24326504 89.0438676 137.38568967 95.67578125 160.4753418 C96.31480716 162.67925773 96.31480716 162.67925773 97.37890625 165.203125 C98.68578592 168.50586693 99.41269258 171.9185002 100.1875 175.375 C101.35635926 180.48455325 102.55642697 185.57930148 103.86767578 190.65429688 C107.18389828 203.53617753 109.36777646 216.54669072 111.375 229.6875 C111.53742187 230.72817627 111.69984375 231.76885254 111.8671875 232.84106445 C114.62698303 251.38975117 115.75760252 269.94443335 115.75 288.6875 C115.75060425 290.23822708 115.75060425 290.23822708 115.7512207 291.82028198 C115.67907656 324.27799471 110.76920682 355.77506181 100.3125 386.5625 C101.74529297 386.98208984 101.74529297 386.98208984 103.20703125 387.41015625 C111.7969619 390.02797611 119.0591405 393.1250598 126.3125 398.5625 C127.08956299 399.13846924 127.08956299 399.13846924 127.88232422 399.72607422 C144.59324541 412.31010718 156.59041775 431.21951046 160.02392578 452.04638672 C161.82222155 467.72594361 161.47927395 483.92143276 155.25 498.5625 C154.98123047 499.21605469 154.71246094 499.86960937 154.43554688 500.54296875 C153.45456108 502.9159269 152.4611364 505.26522719 151.3125 507.5625 C151.97096924 507.59335693 152.62943848 507.62421387 153.30786133 507.65600586 C160.63989195 508.14188275 167.07235844 509.72911778 174 512.125 C175.04438232 512.48142578 176.08876465 512.83785156 177.16479492 513.20507812 C193.96060126 519.09117486 207.82856395 527.22342866 220.92578125 539.38671875 C222.64857358 540.9572512 224.44023011 542.4533621 226.26953125 543.8984375 C229.65113405 546.69987652 232.14254832 549.94197336 234.6875 553.5 C235.16082764 554.15677734 235.63415527 554.81355469 236.12182617 555.49023438 C252.72315951 578.90100426 260.05414095 603.67359249 259.36132812 632.28564453 C259.32051582 634.18872221 259.3194629 636.09259821 259.328125 637.99609375 C258.98197635 651.3055094 253.45182807 664.89371089 247.3125 676.5625 C248.14394531 676.6553125 248.97539063 676.748125 249.83203125 676.84375 C253.94347353 677.69280205 257.271818 679.17867368 261 681.0625 C261.70189453 681.41634766 262.40378906 681.77019531 263.12695312 682.13476562 C269.56046362 685.4957304 274.98678497 689.62838166 280.3125 694.5625 C281.40304687 695.55056641 281.40304687 695.55056641 282.515625 696.55859375 C296.64252364 709.95757967 307.70181592 731.36669719 308.44189453 750.99414062 C308.44302246 752.22326172 308.44415039 753.45238281 308.4453125 754.71875 C308.44626923 755.38410767 308.44722595 756.04946533 308.44821167 756.73498535 C308.44888827 758.13338313 308.44707047 759.53178414 308.44287109 760.93017578 C308.4375154 763.05638766 308.44283375 765.18238834 308.44921875 767.30859375 C308.44855788 768.67447963 308.44727652 770.04036537 308.4453125 771.40625 C308.44362061 773.24993164 308.44362061 773.24993164 308.44189453 775.13085938 C308.3125 778.5625 308.3125 778.5625 307.3125 784.5625 C28.7925 784.5625 -249.7275 784.5625 -536.6875 784.5625 C-541.43122562 765.58759754 -536.2780733 746.96340062 -526.6875 730.5625 C-515.18220068 712.46377915 -497.98776231 697.75926929 -478.6875 688.5625 C-480.15240744 684.50331513 -482.11610301 680.8118108 -484.16577148 677.02856445 C-497.66006083 652.08696944 -504.18249753 624.11642088 -496.02050781 596.08422852 C-485.9000707 564.91369196 -461.17880121 539.1198695 -432.41943359 524.1496582 C-425.67489399 520.76933426 -418.85377868 517.93353879 -411.6875 515.5625 C-410.73617187 515.20285156 -409.78484375 514.84320312 -408.8046875 514.47265625 C-401.42201702 511.76439202 -394.53381265 510.81560686 -386.6875 510.5625 C-387.48414063 509.11230469 -387.48414063 509.11230469 -388.296875 507.6328125 C-400.68066448 484.90918838 -406.32832276 460.85329513 -399.02050781 435.29199219 C-392.9690077 416.15749184 -381.3158459 398.46763066 -363.125 388.9375 C-359.6875 387.5625 -359.6875 387.5625 -356.6875 387.5625 C-356.6875 386.9025 -356.6875 386.2425 -356.6875 385.5625 C-357.39390625 385.33175781 -358.1003125 385.10101562 -358.828125 384.86328125 C-372.79579375 378.50913686 -383.35250427 361.20153256 -388.6875 347.5625 C-397.00623404 321.57280955 -397.3395714 296.15332105 -384.74853516 271.48681641 C-374.36530759 252.65556936 -359.52398947 241.36535183 -339.796875 233.39453125 C-335.92934459 232.35962676 -332.68240294 232.42474473 -328.6875 232.5625 C-328.99494141 231.09103516 -328.99494141 231.09103516 -329.30859375 229.58984375 C-330.9861898 221.28377333 -332.0907746 213.24767956 -332.4765625 204.76953125 C-332.58514896 201.72979756 -332.58514896 201.72979756 -333.18579102 199.49658203 C-333.93035748 195.1422269 -333.89070068 190.82068603 -333.92578125 186.41015625 C-333.93543915 185.40988403 -333.94509705 184.40961182 -333.95504761 183.37902832 C-333.9799476 180.1276481 -333.99245752 176.87646543 -334 173.625 C-334.00295074 172.52235809 -334.00590149 171.41971619 -334.00894165 170.28366089 C-334.02132622 149.97907008 -333.71716072 129.23753272 -327.34619141 109.74780273 C-326.67678107 107.52693842 -326.24927274 105.34992673 -325.875 103.0625 C-320.12248917 72.97969747 -303.18179532 44.04034994 -282.21777344 22.16455078 C-281.18278632 21.08101768 -280.15494825 19.99061775 -279.13378906 18.89404297 C-250.88642224 -11.40311746 -213.34387189 -27.8868471 -173.6875 -37.4375 C-172.53507812 -37.72367188 -171.38265625 -38.00984375 -170.1953125 -38.3046875 C-166.70427856 -39.11675055 -163.21544204 -39.80354493 -159.6875 -40.4375 C-158.92679199 -40.57430176 -158.16608398 -40.71110352 -157.38232422 -40.85205078 C-101.10605494 -50.5578744 -43.94381793 -36.96810771 0 0 Z " fill="#FDCFB7" transform="translate(604.6875,215.4375)"/>
<path d="M0 0 C0.22550537 0.5576001 0.45101074 1.1152002 0.68334961 1.68969727 C9.23052234 22.6538511 19.54006754 40.06371195 34.92578125 56.73828125 C36.80121586 58.78324667 38.59032533 60.87619475 40.375 63 C73.30703817 100.61503443 127.03843801 124.14686083 176.07226562 128.81030273 C181.54944582 129.16518674 187.0321962 129.14757038 192.51852417 129.13092041 C194.65831037 129.12490638 196.79795541 129.12839695 198.93774414 129.13232422 C206.15351232 129.12893458 213.2584173 128.89380071 220.4375 128.125 C226.20835166 127.69518849 229.44014054 128.35834159 233.921875 132.0703125 C234.60765625 132.70710937 235.2934375 133.34390625 236 134 C236.83015625 134.67804688 237.6603125 135.35609375 238.515625 136.0546875 C248.3224527 144.30534194 255.213242 154.06621001 257.75 166.75 C257.86035582 168.16481818 257.93971792 169.5821654 258 171 C258.09474609 172.50820313 258.09474609 172.50820313 258.19140625 174.046875 C258.79897778 191.37246322 253.10050154 207.73645573 243.16015625 221.8203125 C238.44229831 226.58082738 231.90384122 226.47919023 225.5625 227 C224.78068359 227.06960938 223.99886719 227.13921875 223.19335938 227.2109375 C221.35402253 227.37343794 219.51409694 227.52932625 217.67382812 227.6809082 C214.78394431 227.93191021 211.89978871 228.20750843 209.01367188 228.49682617 C195.81818824 229.78399445 182.74035133 230.34384016 169.48339844 230.31567383 C166.36879015 230.31249366 163.25511865 230.33618762 160.140625 230.36132812 C149.16201356 230.39318305 138.58342301 229.85808263 127.75350952 227.9634552 C123.2625209 227.19514775 119.46279807 226.63662934 115 228 C112.67961905 230.82568546 112.67961905 230.82568546 113.1875 234.0625 C113.73754498 237.29740953 113.73754498 237.29740953 117 239 C119.06814545 239.52826894 119.06814545 239.52826894 121.3515625 239.81640625 C122.62966797 240.00299805 122.62966797 240.00299805 123.93359375 240.19335938 C124.82175781 240.31517578 125.70992188 240.43699219 126.625 240.5625 C127.48996094 240.68818359 128.35492188 240.81386719 129.24609375 240.94335938 C131.82864411 241.31312483 134.41352974 241.65886609 137 242 C137.68916504 242.10006348 138.37833008 242.20012695 139.08837891 242.30322266 C146.72937921 243.31220557 154.43124789 243.24024404 162.125 243.25 C163.28103226 243.25300613 163.28103226 243.25300613 164.4604187 243.256073 C183.38501513 243.26793825 202.16664168 241.72180896 221 240 C222.1741748 239.89413574 223.34834961 239.78827148 224.55810547 239.67919922 C227.03894343 239.45496279 229.51958339 239.22884086 232 239 C230.91758437 249.17470691 229.5407942 259.2297618 227.68359375 269.29296875 C224.97974918 283.48348498 224.97974918 283.48348498 229 297 C232.85365035 302.56638384 237.28002253 307.32000563 244 309 C252.25309806 309.86874716 260.15626603 310.18826715 267 305 C272.46914643 300.54836918 276.0721315 295.10336876 277.62890625 288.21875 C278.48441521 277.24650809 274.01778973 267.28220713 270.26171875 257.171875 C267.4027019 249.47333315 265.06945415 242.16087242 264 234 C265.14138428 233.764021 266.28276855 233.52804199 267.45874023 233.28491211 C295.57529183 227.45284462 323.18048634 221.46938007 350 211 C351.35240123 210.48186188 352.70524959 209.96488897 354.05859375 209.44921875 C357.04282972 208.30884871 360.02324017 207.15970715 363 206 C392.23273229 228.55096491 412.28820112 260.01740783 417.5625 296.9375 C418.25866719 303.6072984 418.18421626 310.30117932 418.1875 317 C418.19974609 318.31484375 418.21199219 319.6296875 418.22460938 320.984375 C418.23406862 327.2653156 418.01347292 332.99149117 416.45654297 339.07910156 C415.71408453 342.20298552 415.60042748 344.81864164 416 348 C417.89892359 350.81131942 417.89892359 350.81131942 420.5625 353.25 C425.60148957 358.45956185 429.42122476 363.71296242 433 370 C433.53496094 370.91136719 434.06992187 371.82273437 434.62109375 372.76171875 C439.07984575 380.91200607 443 391.54133855 443 401 C216.29 401 -10.42 401 -244 401 C-247.08166813 382.50999125 -243.68461081 365.85846472 -233.1875 350.31640625 C-231.22694866 347.76360502 -229.16912063 345.37819249 -227 343 C-226.13761719 342.04480469 -225.27523437 341.08960938 -224.38671875 340.10546875 C-203.4467491 317.68504144 -174.52831018 306.62470761 -145 301 C-144.29891113 300.86577637 -143.59782227 300.73155273 -142.87548828 300.59326172 C-119.40632407 296.38054378 -94.16280134 298.20562974 -71 303 C-69.84105225 303.22429687 -69.84105225 303.22429687 -68.65869141 303.453125 C-58.374384 305.45214448 -48.65132852 308.70046137 -38.83935547 312.35839844 C-32.10581753 314.95628142 -32.10581753 314.95628142 -25 315 C-22.68432616 311.52648925 -22.40412423 310.08600528 -23 306 C-45.94156761 289.59994192 -84.42727546 286.5617641 -111.875 286.625 C-112.72694946 286.62521149 -113.57889893 286.62542297 -114.45666504 286.62564087 C-138.89026368 286.68590516 -161.91143273 291.11140618 -185 299 C-200.63192442 275.83001425 -210.20986255 251.02175993 -205.3828125 222.66796875 C-198.5835744 194.418037 -177.2216831 171.05315582 -152.97363281 156.17285156 C-135.33493523 145.69087443 -113.91880623 136.68148506 -93 140 C-88.13600272 141.74469468 -84.15518855 145.00272399 -80 148 C-74.15144088 151.21441696 -68.76475284 154.12745881 -62 153 C-59.95548981 151.95625978 -59.95548981 151.95625978 -59 150 C-58.24978756 147.54367668 -58.24978756 147.54367668 -59 145 C-62.6936538 142.20571979 -66.51840973 140.20158965 -70.70947266 138.26147461 C-78.6472248 134.56991651 -84.9136878 130.40112145 -91 124 C-91.56976563 123.42636719 -92.13953125 122.85273437 -92.7265625 122.26171875 C-100.42425696 113.99163162 -104.12746548 103.73885983 -107 93 C-107.176521 92.39865234 -107.35304199 91.79730469 -107.53491211 91.17773438 C-108.56188152 86.36903769 -108.22817707 81.33402054 -108.25 76.4375 C-108.2809375 74.74270508 -108.2809375 74.74270508 -108.3125 73.01367188 C-108.34700695 65.52134997 -107.3857953 59.09759337 -105 52 C-104.64679688 50.91847656 -104.29359375 49.83695313 -103.9296875 48.72265625 C-98.49815554 35.02312564 -89.03016933 23.64647186 -75.9375 16.625 C-66.45373071 12.56562556 -58.31398847 11.64549071 -48 11.9375 C-31.96282305 12.3401428 -18.70502033 10.0987471 -5.09375 1.171875 C-3 0 -3 0 0 0 Z " fill="#FEC2DE" transform="translate(325,599)"/>
<path d="M0 0 C13.75277092 11.87640862 26.68422329 24.7996717 37.3125 39.5625 C37.79235352 40.21927734 38.27220703 40.87605469 38.76660156 41.55273438 C49.16055839 55.80692277 58.61357871 70.34808353 66.21582031 86.28369141 C67.4108584 88.76688052 68.63786674 91.23283133 69.8671875 93.69921875 C80.51236876 115.24326504 89.0438676 137.38568967 95.67578125 160.4753418 C96.31480716 162.67925773 96.31480716 162.67925773 97.37890625 165.203125 C98.68578592 168.50586693 99.41269258 171.9185002 100.1875 175.375 C101.35635926 180.48455325 102.55642697 185.57930148 103.86767578 190.65429688 C107.18389828 203.53617753 109.36777646 216.54669072 111.375 229.6875 C111.53742187 230.72817627 111.69984375 231.76885254 111.8671875 232.84106445 C114.62698303 251.38975117 115.75760252 269.94443335 115.75 288.6875 C115.75060425 290.23822708 115.75060425 290.23822708 115.7512207 291.82028198 C115.67907656 324.27799471 110.76920682 355.77506181 100.3125 386.5625 C101.74529297 386.98208984 101.74529297 386.98208984 103.20703125 387.41015625 C111.7969619 390.02797611 119.0591405 393.1250598 126.3125 398.5625 C127.08956299 399.13846924 127.08956299 399.13846924 127.88232422 399.72607422 C144.59324541 412.31010718 156.59041775 431.21951046 160.02392578 452.04638672 C161.82222155 467.72594361 161.47927395 483.92143276 155.25 498.5625 C154.98123047 499.21605469 154.71246094 499.86960937 154.43554688 500.54296875 C153.45456108 502.9159269 152.4611364 505.26522719 151.3125 507.5625 C151.97096924 507.59335693 152.62943848 507.62421387 153.30786133 507.65600586 C160.63989195 508.14188275 167.07235844 509.72911778 174 512.125 C175.04438232 512.48142578 176.08876465 512.83785156 177.16479492 513.20507812 C193.96060126 519.09117486 207.82856395 527.22342866 220.92578125 539.38671875 C222.64857358 540.9572512 224.44023011 542.4533621 226.26953125 543.8984375 C229.65113405 546.69987652 232.14254832 549.94197336 234.6875 553.5 C235.16082764 554.15677734 235.63415527 554.81355469 236.12182617 555.49023438 C252.72315951 578.90100426 260.05414095 603.67359249 259.36132812 632.28564453 C259.32051582 634.18872221 259.3194629 636.09259821 259.328125 637.99609375 C258.98197635 651.3055094 253.45182807 664.89371089 247.3125 676.5625 C248.14394531 676.6553125 248.97539063 676.748125 249.83203125 676.84375 C253.94347353 677.69280205 257.271818 679.17867368 261 681.0625 C261.70189453 681.41634766 262.40378906 681.77019531 263.12695312 682.13476562 C269.56046362 685.4957304 274.98678497 689.62838166 280.3125 694.5625 C281.40304687 695.55056641 281.40304687 695.55056641 282.515625 696.55859375 C296.64252364 709.95757967 307.70181592 731.36669719 308.44189453 750.99414062 C308.44302246 752.22326172 308.44415039 753.45238281 308.4453125 754.71875 C308.44626923 755.38410767 308.44722595 756.04946533 308.44821167 756.73498535 C308.44888827 758.13338313 308.44707047 759.53178414 308.44287109 760.93017578 C308.4375154 763.05638766 308.44283375 765.18238834 308.44921875 767.30859375 C308.44855788 768.67447963 308.44727652 770.04036537 308.4453125 771.40625 C308.44362061 773.24993164 308.44362061 773.24993164 308.44189453 775.13085938 C308.3125 778.5625 308.3125 778.5625 307.3125 784.5625 C259.7925 784.5625 212.2725 784.5625 163.3125 784.5625 C161.9925 779.6125 160.6725 774.6625 159.3125 769.5625 C154.58024148 755.74942108 147.41307379 742.99121935 136.56640625 732.9453125 C135.3125 731.5625 135.3125 731.5625 135 728.4375 C135.3125 724.5625 135.3125 724.5625 136.31640625 720.7421875 C137.81472803 714.15602476 137.60258679 707.53371823 137.5625 700.8125 C137.57023438 699.53117188 137.57796875 698.24984375 137.5859375 696.9296875 C137.51514637 662.02966159 123.31445275 628.30647742 98.75 603.5625 C96.84943699 601.72507784 94.93091356 599.91247404 92.98828125 598.11962891 C91.57404249 596.80552418 90.20345104 595.44467692 88.84375 594.07421875 C86.59975982 592.11910044 85.23856794 591.1210231 82.3125 590.5625 C78.83008576 591.44761362 75.7774556 592.9100029 72.5859375 594.515625 C50.49015302 605.51601078 23.71358718 610.49020222 -0.3125 615.5625 C-1.29541016 615.77028076 -2.27832031 615.97806152 -3.29101562 616.19213867 C-7.51732787 617.05009207 -11.35950051 617.66197225 -15.6875 617.5625 C-15.295625 618.696875 -14.90375 619.83125 -14.5 621 C-12.75496782 626.21063348 -11.25042816 631.48659779 -9.74658203 636.77050781 C-8.4287672 641.31041439 -6.90208944 645.70280843 -5.19384766 650.109375 C-1.79715402 658.98898437 0.69219919 667.89740756 -2.6484375 677.25390625 C-5.92153659 683.5812029 -10.40563294 688.1799562 -16.6875 691.5625 C-17.24824219 691.91183594 -17.80898438 692.26117187 -18.38671875 692.62109375 C-24.09750395 694.95776477 -32.15847529 694.35173875 -38.1328125 693.015625 C-45.23513927 689.9676629 -51.16273916 682.97796428 -54.25 676.0625 C-55.45524238 666.42056095 -53.97120023 657.62139145 -52.17138672 648.15917969 C-51.23140079 643.11493634 -50.37269335 638.0562354 -49.5 633 C-49.15254036 630.99866377 -48.80490045 628.99735883 -48.45703125 626.99609375 C-48.20049036 625.51823446 -47.94396752 624.04037203 -47.6875 622.5625 C-48.27345947 622.68802246 -48.85941895 622.81354492 -49.46313477 622.94287109 C-58.4607326 624.73344622 -67.49150386 625.48853131 -76.625 626.1875 C-77.46888275 626.25286957 -78.3127655 626.31823914 -79.18222046 626.3855896 C-103.00972726 628.19138554 -128.03437124 629.70179753 -151.6875 625.5625 C-152.9559375 625.34464844 -154.224375 625.12679687 -155.53125 624.90234375 C-164.06479561 623.20491022 -164.06479561 623.20491022 -166.5390625 620.65234375 C-167.6875 618.5625 -167.6875 618.5625 -167.625 615.5 C-166.50546463 611.99212251 -165.93241804 611.23912697 -162.6875 609.5625 C-159.81224251 609.64465021 -157.25593592 609.87135351 -154.4375 610.3125 C-153.71175781 610.41304687 -152.98601562 610.51359375 -152.23828125 610.6171875 C-150.85532213 610.80947059 -149.47329831 611.00872844 -148.09277344 611.21777344 C-146.90216309 611.38841309 -146.90216309 611.38841309 -145.6875 611.5625 C-143.90339722 611.8246228 -143.90339722 611.8246228 -142.08325195 612.09204102 C-137.05674744 612.71019403 -132.05487496 612.7245947 -126.99609375 612.73046875 C-125.97435562 612.73379715 -124.95261749 612.73712555 -123.8999176 612.74055481 C-121.73740078 612.74560134 -119.57487622 612.74796384 -117.41235352 612.74780273 C-114.18687111 612.74995865 -110.96174875 612.76805333 -107.73632812 612.78710938 C-94.40939281 612.82300229 -81.29824201 612.1477071 -68.04110718 610.79873657 C-65.04960694 610.49847331 -62.05499038 610.24605221 -59.05859375 610 C-57.41401477 609.85470589 -55.76947939 609.70891696 -54.125 609.5625 C-52.85366211 609.45808594 -52.85366211 609.45808594 -51.55664062 609.3515625 C-43.5033688 608.75871456 -43.5033688 608.75871456 -36.78125 604.70703125 C-25.49523828 588.19294058 -20.54215766 568.81542031 -23.3125 548.9375 C-26.34888303 534.67697004 -35.6573026 523.41147025 -47.6875 515.5625 C-48.45964844 515.00820313 -49.23179687 514.45390625 -50.02734375 513.8828125 C-53.40595025 512.20591236 -55.25967262 512.4556428 -59 512.875 C-94.60228633 516.00658247 -129.52063478 512.3310167 -162.6875 498.5625 C-163.32671387 498.30388184 -163.96592773 498.04526367 -164.62451172 497.77880859 C-188.35118605 488.14076821 -210.41859614 474.35639329 -229.16796875 456.89453125 C-231.31719108 454.90525104 -233.50811528 453.00746432 -235.75 451.125 C-255.27921804 434.0617932 -271.22883385 410.0413672 -279.6875 385.5625 C-279.6875 384.9025 -279.6875 384.2425 -279.6875 383.5625 C-280.70457031 384.14257812 -280.70457031 384.14257812 -281.7421875 384.734375 C-287.91168507 388.18655923 -294.04917586 391.13470301 -300.6875 393.5625 C-301.739375 393.954375 -302.79125 394.34625 -303.875 394.75 C-312.81842671 397.33365661 -321.983071 396.57156167 -331.19726562 396.34765625 C-347.1529857 396.15903409 -359.24422891 401.44524803 -370.6875 412.5625 C-385.70575983 430.12303579 -387.99656643 450.18999763 -386.6875 472.5625 C-385.05071602 485.60120199 -379.14402123 496.72419425 -370.6875 506.5625 C-369.93919922 507.47128906 -369.93919922 507.47128906 -369.17578125 508.3984375 C-362.00380088 516.38336275 -351.12531802 521.03399677 -341.578125 525.5546875 C-339.6875 526.5625 -339.6875 526.5625 -337.6875 528.5625 C-337.1765819 531.79831461 -337.40230432 533.14041039 -339.25 535.875 C-342.63193881 538.21634226 -344.60839668 537.919007 -348.6875 537.5625 C-351.4783097 536.58959907 -354.02474158 535.27166725 -356.625 533.875 C-357.28951172 533.53533203 -357.95402344 533.19566406 -358.63867188 532.84570312 C-362.14036371 531.02862734 -365.38540992 529.07869885 -368.625 526.828125 C-372.98401743 524.0746976 -376.68097307 523.82482731 -381.75 524 C-382.57999512 524.01732178 -383.40999023 524.03464355 -384.26513672 524.05249023 C-407.73301016 524.93777285 -431.235024 537.390247 -448.6875 552.5625 C-449.52925781 553.28308594 -450.37101562 554.00367188 -451.23828125 554.74609375 C-468.03409673 569.45198985 -483.20325814 590.40971611 -484.89453125 613.37353516 C-485.39891996 624.63401304 -485.60264556 635.86208337 -481.6875 646.5625 C-481.25724961 647.8318406 -480.82760759 649.10138749 -480.3984375 650.37109375 C-476.50421556 661.5549791 -471.35219942 671.75462357 -464.6875 681.5625 C-463.86088867 681.28007446 -463.86088867 681.28007446 -463.01757812 680.99194336 C-427.67822181 669.0457697 -388.46285058 664.74472967 -351.6875 672.5625 C-350.87394043 672.72347168 -350.06038086 672.88444336 -349.22216797 673.05029297 C-338.06764244 675.28377269 -327.32553236 678.51796405 -316.5625 682.1875 C-314.86250854 682.76395264 -314.86250854 682.76395264 -313.12817383 683.35205078 C-311.5449231 683.90868408 -311.5449231 683.90868408 -309.9296875 684.4765625 C-308.9897998 684.8060791 -308.04991211 685.1355957 -307.08154297 685.47509766 C-304.66052773 686.57475112 -303.30256933 687.46469047 -301.6875 689.5625 C-301.27265811 692.81209479 -301.449373 694.94336979 -302.625 698 C-305.58852588 700.24509536 -307.61261606 699.51150451 -311.18383789 699.04125977 C-315.27984076 698.25800656 -319.053709 696.80213025 -322.9375 695.3125 C-333.35492319 691.51369825 -343.82031691 688.74207627 -354.6875 686.5625 C-355.49670898 686.39733887 -356.30591797 686.23217773 -357.13964844 686.06201172 C-393.64350664 678.92508675 -432.86822514 683.23900447 -466.63085938 698.62646484 C-468.40609399 699.43442419 -470.19416138 700.21407749 -471.984375 700.98828125 C-492.85185608 710.54784353 -512.41149068 728.84295143 -520.98046875 750.40234375 C-524.61585617 761.50935614 -523.88044161 773.0181604 -523.6875 784.5625 C-527.9775 784.5625 -532.2675 784.5625 -536.6875 784.5625 C-541.43122562 765.58759754 -536.2780733 746.96340062 -526.6875 730.5625 C-515.18220068 712.46377915 -497.98776231 697.75926929 -478.6875 688.5625 C-480.15240744 684.50331513 -482.11610301 680.8118108 -484.16577148 677.02856445 C-497.66006083 652.08696944 -504.18249753 624.11642088 -496.02050781 596.08422852 C-485.9000707 564.91369196 -461.17880121 539.1198695 -432.41943359 524.1496582 C-425.67489399 520.76933426 -418.85377868 517.93353879 -411.6875 515.5625 C-410.73617187 515.20285156 -409.78484375 514.84320312 -408.8046875 514.47265625 C-401.42201702 511.76439202 -394.53381265 510.81560686 -386.6875 510.5625 C-387.48414063 509.11230469 -387.48414063 509.11230469 -388.296875 507.6328125 C-400.68066448 484.90918838 -406.32832276 460.85329513 -399.02050781 435.29199219 C-392.9690077 416.15749184 -381.3158459 398.46763066 -363.125 388.9375 C-359.6875 387.5625 -359.6875 387.5625 -356.6875 387.5625 C-356.6875 386.9025 -356.6875 386.2425 -356.6875 385.5625 C-357.39390625 385.33175781 -358.1003125 385.10101562 -358.828125 384.86328125 C-372.79579375 378.50913686 -383.35250427 361.20153256 -388.6875 347.5625 C-397.00623404 321.57280955 -397.3395714 296.15332105 -384.74853516 271.48681641 C-374.36530759 252.65556936 -359.52398947 241.36535183 -339.796875 233.39453125 C-335.92934459 232.35962676 -332.68240294 232.42474473 -328.6875 232.5625 C-328.99494141 231.09103516 -328.99494141 231.09103516 -329.30859375 229.58984375 C-330.9861898 221.28377333 -332.0907746 213.24767956 -332.4765625 204.76953125 C-332.58514896 201.72979756 -332.58514896 201.72979756 -333.18579102 199.49658203 C-333.93035748 195.1422269 -333.89070068 190.82068603 -333.92578125 186.41015625 C-333.93543915 185.40988403 -333.94509705 184.40961182 -333.95504761 183.37902832 C-333.9799476 180.1276481 -333.99245752 176.87646543 -334 173.625 C-334.00295074 172.52235809 -334.00590149 171.41971619 -334.00894165 170.28366089 C-334.02132622 149.97907008 -333.71716072 129.23753272 -327.34619141 109.74780273 C-326.67678107 107.52693842 -326.24927274 105.34992673 -325.875 103.0625 C-320.12248917 72.97969747 -303.18179532 44.04034994 -282.21777344 22.16455078 C-281.18278632 21.08101768 -280.15494825 19.99061775 -279.13378906 18.89404297 C-250.88642224 -11.40311746 -213.34387189 -27.8868471 -173.6875 -37.4375 C-172.53507812 -37.72367188 -171.38265625 -38.00984375 -170.1953125 -38.3046875 C-166.70427856 -39.11675055 -163.21544204 -39.80354493 -159.6875 -40.4375 C-158.92679199 -40.57430176 -158.16608398 -40.71110352 -157.38232422 -40.85205078 C-101.10605494 -50.5578744 -43.94381793 -36.96810771 0 0 Z M-167.6875 -25.4375 C-168.89535156 -25.13714844 -170.10320312 -24.83679688 -171.34765625 -24.52734375 C-174.82766899 -23.58712978 -178.24895431 -22.51960962 -181.6875 -21.4375 C-183.48609568 -20.91362387 -185.2856643 -20.39308206 -187.0859375 -19.875 C-214.77276221 -11.82802265 -240.51100872 0.71941362 -261.6875 20.6796875 C-263.36546568 22.25933487 -265.06588695 23.70220797 -266.875 25.125 C-270.55384045 28.31332839 -273.59333866 31.81164285 -276.6875 35.5625 C-277.09661621 36.05395508 -277.50573242 36.54541016 -277.92724609 37.05175781 C-300.14065021 63.88990651 -311.62998633 94.57447472 -317.6875 128.5625 C-317.88085938 129.62936035 -317.88085938 129.62936035 -318.078125 130.71777344 C-322.38534706 154.83052549 -321.57427969 179.94418875 -319.3125 204.25 C-319.21781433 205.27657211 -319.21781433 205.27657211 -319.12121582 206.32388306 C-318.32244408 214.80424464 -317.21503996 223.18260009 -315.6875 231.5625 C-314.2334375 231.85640625 -314.2334375 231.85640625 -312.75 232.15625 C-297.65573235 235.43281981 -283.77327565 241.47672435 -272.6875 252.5625 C-272.61570036 254.08178038 -272.60357993 255.60417482 -272.625 257.125 C-272.63402344 257.95128906 -272.64304687 258.77757812 -272.65234375 259.62890625 C-272.66394531 260.26699219 -272.67554688 260.90507812 -272.6875 261.5625 C-276.6063936 262.13400532 -280.20416797 262.59438315 -283.57421875 260.25 C-284.82682964 259.0327122 -286.07243422 257.80819025 -287.3125 256.578125 C-298.86146996 246.77669654 -313.93748797 243.43736847 -328.6875 244.5625 C-345.5437627 248.17321998 -358.11762959 257.03516585 -368.6875 270.5625 C-377.66427246 284.49020232 -380.86583925 298.0413742 -380.875 314.375 C-380.88724609 315.51259766 -380.89949219 316.65019531 -380.91210938 317.82226562 C-380.93327981 330.0517187 -378.11459306 338.64013432 -372.6875 349.5625 C-372.13449219 350.75552734 -372.13449219 350.75552734 -371.5703125 351.97265625 C-363.88303176 367.43138504 -349.64616338 377.05871855 -333.6875 382.5625 C-330.17368881 383.46941463 -330.17368881 383.46941463 -326.6875 383.5625 C-325.91535156 383.624375 -325.14320313 383.68625 -324.34765625 383.75 C-309.09307304 384.46680861 -294.88026341 378.53427072 -283.5625 368.5625 C-275.47040722 361.055096 -269.86079814 352.10005513 -266.0625 341.75 C-264.9375 338.81640625 -264.9375 338.81640625 -263.6875 336.5625 C-260.0625 335.1875 -260.0625 335.1875 -256.6875 335.5625 C-255.6975 336.2225 -254.7075 336.8825 -253.6875 337.5625 C-252.50496551 348.5815714 -259.37392269 358.8851518 -265.953125 367.16015625 C-268.44743906 370.57758669 -268.44743906 370.57758669 -269.6875 374.5625 C-268.95050314 377.82198932 -267.6874584 380.80901111 -266.375 383.875 C-265.82175049 385.20253296 -265.82175049 385.20253296 -265.25732422 386.55688477 C-258.02893077 403.48958663 -248.36284824 417.67531895 -235.87890625 431.1796875 C-234.44160053 432.74253329 -233.03132286 434.33076882 -231.65234375 435.9453125 C-200.63255004 472.0094465 -149.33494581 496.07985424 -102.203125 500.28125 C-68.25668147 502.66882673 -34.18985757 496.93912914 -3.6875 481.5625 C-3.05021973 481.24974121 -2.41293945 480.93698242 -1.75634766 480.61474609 C14.81038675 472.45571821 29.65637844 461.97674242 43.3125 449.5625 C44.23289062 448.72589844 45.15328125 447.88929688 46.1015625 447.02734375 C68.02406348 426.08408993 82.73528916 398.41916282 91.3125 369.5625 C91.64507813 368.54671875 91.97765625 367.5309375 92.3203125 366.484375 C114.14396946 296.71740864 101.68398753 214.09907548 77.3125 146.5625 C76.95961914 145.56718262 76.60673828 144.57186523 76.24316406 143.54638672 C61.5063988 102.0785281 41.6282851 61.42279111 10.90625 29.33203125 C8.3125 26.5625 8.3125 26.5625 6.18359375 23.89453125 C3.29700885 20.2968461 -0.17959348 17.53805649 -3.6875 14.5625 C-4.63882812 13.72332031 -5.59015625 12.88414062 -6.5703125 12.01953125 C-24.70739601 -3.87493216 -44.90716923 -14.71761067 -67.6875 -22.4375 C-68.42581055 -22.6960376 -69.16412109 -22.9545752 -69.92480469 -23.22094727 C-99.40174226 -33.38927373 -137.64728669 -33.34503109 -167.6875 -25.4375 Z " fill="#070607" transform="translate(604.6875,215.4375)"/>
<path d="M0 0 C14.83809138 1.09911788 26.82502052 9.54027296 37 20 C51.33142958 37.35630099 55.63577101 57.03592948 54 79 C52.31092881 93.44729823 44.02620832 107.69109784 34 118 C33.26007813 118.51820313 32.52015625 119.03640625 31.7578125 119.5703125 C29.576358 121.00115476 29.576358 121.00115476 29.625 124.5625 C29.64360592 128.06110754 29.64360592 128.06110754 32 130 C36.48159459 130.60329158 38.41781475 130.39953889 42.1875 127.8125 C45.03522213 125.16290236 45.03522213 125.16290236 46.8125 122.1875 C49 120 49 120 52.75 119.4375 C79.88515125 121.16106824 108.80267168 137.4256767 127 157 C137.96429996 169.92625047 145.40074348 184.65635008 149.49633789 201.04467773 C149.9769189 202.91039433 150.54317707 204.75341368 151.11328125 206.59375 C152.64343795 212.79224543 152.3406989 219.21970683 152.3125 225.5625 C152.30968018 226.23429291 152.30686035 226.90608582 152.30395508 227.59823608 C152.19498075 244.82157757 148.86845734 257.73033338 141 273 C140.24082275 272.98428955 139.48164551 272.9685791 138.69946289 272.95239258 C111.64881444 272.2671182 111.64881444 272.2671182 86 280 C85.06213918 285.05009595 85.06213918 285.05009595 86 290 C91.2142249 290.20803214 95.43858307 289.52420204 100.4375 288.0625 C120.25282403 282.29766642 142.5290909 283.47891283 161 293 C180.34502441 303.80532895 193.67876971 319.59920831 200 341 C202.01925006 348.72262272 202.30492376 356.1702087 202.25 364.125 C202.25773437 365.25292969 202.26546875 366.38085938 202.2734375 367.54296875 C202.26957031 369.19619141 202.26957031 369.19619141 202.265625 370.8828125 C202.26336914 371.86652832 202.26111328 372.85024414 202.25878906 373.86376953 C202 377 202 377 200 385 C161.39 385 122.78 385 83 385 C82.01 379.72 81.02 374.44 80 369 C76.11338133 355.32616886 69.62107084 342.75913455 59.8125 332.4375 C56.03811122 327.95786211 56.03811122 327.95786211 55.8828125 324.0546875 C56.27209662 321.77929443 56.72733337 319.51467471 57.23046875 317.26171875 C64.18086413 284.14417711 51.60338305 245.80915394 34 218 C28.24491274 209.22742031 21.21023415 201.57461046 14 194 C13.39542969 193.34257813 12.79085937 192.68515625 12.16796875 192.0078125 C5.93351514 185.4244722 -1.5998497 177.63181953 -11.01538086 176.90283203 C-14.36093397 177.06663202 -16.84770804 178.37763032 -19.8125 179.875 C-31.43958427 185.41130058 -43.73731009 189.14101754 -56 193 C-57.24136719 193.39082764 -57.24136719 193.39082764 -58.5078125 193.78955078 C-72.18382156 198.01497849 -86.25660064 200.64373154 -100.28295898 203.41503906 C-103.07579509 203.96444606 -103.07579509 203.96444606 -106 205 C-108.33299825 205.03954234 -110.66708189 205.04401732 -113 205 C-112.08001997 200.51229255 -110.14834365 196.38094527 -108.34765625 192.19140625 C-104.15331178 182.05331735 -102.434691 172.13573759 -102.5 161.1875 C-102.50644531 160.04966064 -102.51289062 158.91182129 -102.51953125 157.73950195 C-102.91889076 139.2993393 -110.67644952 124.51795866 -123.8984375 111.828125 C-125.86595286 109.96301838 -125.86595286 109.96301838 -128 109 C-128 108.34 -128 107.68 -128 107 C-126.8140625 106.64808594 -125.628125 106.29617188 -124.40625 105.93359375 C-72.10179409 90.11606486 -30.27968835 57.37657218 -4.17919922 9.28857422 C-2.61363886 6.25015543 -1.27726946 3.16952051 0 0 Z " fill="#FDC2DD" transform="translate(698,615)"/>
<path d="M0 0 C13.04369941 7.17022073 22.58841506 16.10135794 26.88183594 30.67578125 C29.85314846 44.68973284 27.78765561 59.78225979 22.33984375 72.8359375 C22.08283691 73.48965332 21.82583008 74.14336914 21.56103516 74.81689453 C13.68684979 94.8431376 1.64672988 111.97921821 -13.29125977 127.39990234 C-14.61582966 128.78943688 -15.87972271 130.23603821 -17.140625 131.68359375 C-21.45755656 135.3713911 -26.0370324 134.45627354 -31.47216797 134.04541016 C-38.92365126 133.33202334 -46.2968914 132.16852308 -53.66015625 130.8359375 C-54.73007812 130.64257812 -55.8 130.44921875 -56.90234375 130.25 C-76.62098478 125.94876669 -95.69389411 116.2640683 -110.66015625 102.8359375 C-111.31628906 102.25070312 -111.97242188 101.66546875 -112.6484375 101.0625 C-123.65129491 90.66955708 -132.22187183 75.58856566 -132.99609375 60.28515625 C-133.25788213 46.66650002 -131.56994196 37.02056367 -122.34765625 26.41796875 C-113.21904508 17.6476025 -102.50028032 12.93352532 -89.97265625 12.2734375 C-79.10670756 12.4988229 -69.87123738 17.42457439 -60.66015625 22.8359375 C-60.45390625 22.1759375 -60.24765625 21.5159375 -60.03515625 20.8359375 C-55.29657725 10.49721969 -46.83070669 2.63370599 -36.66015625 -2.1640625 C-35.93828125 -2.52886719 -35.21640625 -2.89367187 -34.47265625 -3.26953125 C-23.31968011 -6.81679727 -10.39579457 -4.80847827 0 0 Z " fill="#FDA3D3" transform="translate(518.66015625,335.1640625)"/>
<path d="M0 0 C10.38295395 4.80107791 14.61827124 13.71068675 18.69140625 23.96484375 C25.22042154 42.41640869 23.44984716 64.50306557 15.48828125 82.0859375 C14.34153254 84.31847817 13.09767988 86.36252103 11.6875 88.4375 C10.91792969 89.57251953 10.91792969 89.57251953 10.1328125 90.73046875 C1.04958348 103.22514093 -12.36582311 110.28007129 -27.3125 113.4375 C-28.17875 113.62183594 -29.045 113.80617188 -29.9375 113.99609375 C-49.6563522 116.575064 -68.87242953 114.32044404 -85.17578125 102.33203125 C-99.91510441 89.69513051 -107.98643524 72.31535764 -109.48828125 53.20019531 C-110.32306584 39.24140448 -108.73800888 25.45285376 -99.3125 14.4375 C-93.04660699 7.58658504 -85.36294038 4.31123543 -76.125 3.8125 C-69.27038444 3.99974009 -63.6903601 6.25884996 -57.52734375 9.02734375 C-52.87789773 11.06677268 -48.39851488 12.39400189 -43.3125 11.4375 C-37.94998438 9.20643852 -32.89945317 6.33385122 -27.84765625 3.48046875 C-18.27088215 -1.79677288 -10.54030325 -3.62471967 0 0 Z " fill="#060507" transform="translate(654.3125,432.5625)"/>
<path d="M0 0 C6.90089309 4.89314197 10.44214751 11.25183417 13.58276367 18.92944336 C14.99353678 22.11755466 15.81672369 23.41393083 19.0859375 24.765625 C23.30832755 24.53046714 24.95840179 23.03200894 28.1796875 20.33984375 C35.52771653 14.49308532 40.54813982 11.98111881 50.171875 12.234375 C56.98149942 13.02276663 63.36197954 15.70963579 68.2421875 20.58984375 C74.06511229 28.19199555 74.08865201 36.26889156 73.2421875 45.58984375 C69.53264826 59.92530615 58.58161673 71.34109077 46.12524414 78.79003906 C40.04247034 82.29760609 33.84684818 85.2031864 27.2421875 87.58984375 C26.51257813 87.91082031 25.78296875 88.23179687 25.03125 88.5625 C18.77263209 90.86784525 12.08859904 91.90023097 5.55078125 93.13818359 C3.58478912 93.52281615 1.63045398 93.96626836 -0.3203125 94.421875 C-4.80073365 95.23278456 -7.45774699 95.4324426 -11.35546875 92.90625 C-14.12236514 90.30186066 -16.42604511 87.59049954 -18.7578125 84.58984375 C-19.17804687 84.05311035 -19.59828125 83.51637695 -20.03125 82.96337891 C-34.36745898 64.4294845 -46.55768286 42.72234341 -43.7578125 18.58984375 C-41.65876695 10.65219092 -36.39166008 5.18902881 -29.7578125 0.58984375 C-20.25209561 -4.92658868 -9.61810395 -5.54654237 0 0 Z " fill="#FDA3D3" transform="translate(767.7578125,326.41015625)"/>
<path d="M0 0 C13.04369941 7.17022073 22.58841506 16.10135794 26.88183594 30.67578125 C29.85314846 44.68973284 27.78765561 59.78225979 22.33984375 72.8359375 C22.08283691 73.48965332 21.82583008 74.14336914 21.56103516 74.81689453 C13.68684979 94.8431376 1.64672988 111.97921821 -13.29125977 127.39990234 C-14.61582966 128.78943688 -15.87972271 130.23603821 -17.140625 131.68359375 C-21.45755656 135.3713911 -26.0370324 134.45627354 -31.47216797 134.04541016 C-38.92365126 133.33202334 -46.2968914 132.16852308 -53.66015625 130.8359375 C-54.73007812 130.64257812 -55.8 130.44921875 -56.90234375 130.25 C-76.62098478 125.94876669 -95.69389411 116.2640683 -110.66015625 102.8359375 C-111.31628906 102.25070312 -111.97242188 101.66546875 -112.6484375 101.0625 C-123.65129491 90.66955708 -132.22187183 75.58856566 -132.99609375 60.28515625 C-133.25788213 46.66650002 -131.56994196 37.02056367 -122.34765625 26.41796875 C-113.21904508 17.6476025 -102.50028032 12.93352532 -89.97265625 12.2734375 C-79.10670756 12.4988229 -69.87123738 17.42457439 -60.66015625 22.8359375 C-60.45390625 22.1759375 -60.24765625 21.5159375 -60.03515625 20.8359375 C-55.29657725 10.49721969 -46.83070669 2.63370599 -36.66015625 -2.1640625 C-35.93828125 -2.52886719 -35.21640625 -2.89367187 -34.47265625 -3.26953125 C-23.31968011 -6.81679727 -10.39579457 -4.80847827 0 0 Z M-37.66015625 13.8359375 C-38.67142578 14.60357422 -38.67142578 14.60357422 -39.703125 15.38671875 C-46.53788872 21.34895944 -50.13494816 29.64170381 -53.66015625 37.8359375 C-53.66015625 38.4959375 -53.66015625 39.1559375 -53.66015625 39.8359375 C-61.33670532 40.81073738 -61.33670532 40.81073738 -64.83984375 38.23046875 C-65.54367187 37.54339844 -66.2475 36.85632813 -66.97265625 36.1484375 C-73.82245164 29.47640497 -81.24176921 26.60469288 -90.78515625 26.2109375 C-100.03062292 26.56810233 -107.12666981 30.45801026 -113.66015625 36.8359375 C-119.84545099 44.91118341 -120.66683973 52.91439718 -119.66015625 62.8359375 C-115.14987719 80.10275689 -103.08676084 94.06745583 -87.953125 103.05859375 C-86.56606208 103.86328328 -85.17670555 104.6640314 -83.78515625 105.4609375 C-82.81340454 106.01986694 -82.81340454 106.01986694 -81.82202148 106.59008789 C-73.39462505 111.29289943 -64.73954175 114.32717238 -55.34765625 116.4609375 C-54.43556396 116.67258545 -53.52347168 116.8842334 -52.58374023 117.10229492 C-45.66641318 118.67694612 -38.73021796 120.14842787 -31.66015625 120.8359375 C-30.16935547 121.00609375 -30.16935547 121.00609375 -28.6484375 121.1796875 C-24.50594661 120.70316567 -23.13574024 119.01195297 -20.28515625 116.0234375 C-19.80965332 115.52497314 -19.33415039 115.02650879 -18.84423828 114.51293945 C-14.28541741 109.63243688 -10.3749138 104.38222561 -6.66015625 98.8359375 C-5.91894531 97.75441406 -5.17773438 96.67289062 -4.4140625 95.55859375 C7.36223126 78.07431375 16.09660943 58.34376877 14.33984375 36.8359375 C12.31113166 27.43786762 7.51956649 20.41408599 -0.47265625 15.0859375 C-1.85280842 14.30745778 -3.24962008 13.55790592 -4.66015625 12.8359375 C-5.39878906 12.44277344 -6.13742187 12.04960937 -6.8984375 11.64453125 C-17.14406202 6.83193839 -28.59874063 6.70996988 -37.66015625 13.8359375 Z " fill="#060507" transform="translate(518.66015625,335.1640625)"/>
<path d="M0 0 C0.78117188 -0.00773437 1.56234375 -0.01546875 2.3671875 -0.0234375 C12.2454083 0.0098225 20.37792382 3.92951605 27.57421875 10.65625 C31.67011169 15.03575549 34.36709275 18.39874903 36 24.25 C36.60585938 23.85167969 37.21171875 23.45335937 37.8359375 23.04296875 C48.16392239 16.51250446 57.54031903 13.76060342 69.75390625 15.68359375 C81.15357406 18.29432848 89.71612426 24.45507621 96 34.25 C101.25932831 43.13645128 102.96143174 54.21118862 100.49902344 64.30322266 C94.71229084 83.45668148 81.86997678 98.84197583 64.2734375 108.2734375 C47.14730358 117.20917279 30.12823711 121.95620723 11 124.25 C10.03835938 124.44464844 9.07671875 124.63929688 8.0859375 124.83984375 C4.05682939 125.35654493 0.77473318 125.41612443 -2.72998047 123.11328125 C-18.98801597 109.70051433 -31.9706345 88.95407635 -39 69.25 C-39.32097656 68.54230469 -39.64195312 67.83460938 -39.97265625 67.10546875 C-44.48714728 54.55758684 -45.8319866 36.80208922 -40.2578125 24.46484375 C-33.63276525 12.79899968 -24.5329915 6.14739111 -12.2578125 1.12890625 C-8.10049772 0.00732852 -4.28415146 -0.04241734 0 0 Z M-27.515625 28.23828125 C-32.4213137 37.13416041 -30.9293744 49.83360169 -28.5 59.3125 C-23.45245983 74.82967296 -14.78257847 89.40601327 -4.15625 101.71484375 C-2 104.25 -2 104.25 -0.46875 106.56640625 C1.25240988 108.90553577 2.34425467 110.03671533 5 111.25 C10.83492866 111.43721696 16.3082876 110.45852268 22 109.25 C22.71526855 109.10030762 23.43053711 108.95061523 24.16748047 108.79638672 C45.67272854 104.14297155 66.51280712 95.45320464 80 77.25 C81.90268134 74.00624302 83.52347335 70.7066748 85 67.25 C85.36867188 66.46882813 85.73734375 65.68765625 86.1171875 64.8828125 C88.49266871 57.79841278 88.06056016 48.09982512 85 41.25 C82.75 38.5 82.75 38.5 80 36.25 C78.8553125 35.198125 78.8553125 35.198125 77.6875 34.125 C70.62790186 29.19969897 63.4525043 28.10185905 55 29.25 C48.39726109 31.41878285 43.28956924 35.35226317 38.203125 39.9921875 C36 41.25 36 41.25 32.94921875 41.35546875 C30 40.25 30 40.25 28.12890625 37.37109375 C27.58897887 36.15094816 27.06766764 34.9224423 26.5625 33.6875 C22.48763688 24.77832128 17.96957077 18.23002409 8.73828125 14.09765625 C-5.78193076 9.60281173 -18.75178564 16.74138889 -27.515625 28.23828125 Z " fill="#070605" transform="translate(754,309.75)"/>
<path d="M0 0 C26.16560063 12.0741149 44.42316511 34.76995189 54.24609375 61.375 C60.79486755 81.33316778 60.30771462 101.66150798 56 122 C55.80664062 122.99128906 55.61328125 123.98257813 55.4140625 125.00390625 C53.27032829 134.34446245 48.55125888 143.83587772 43.125 151.7265625 C41.72424922 153.91534782 41.72424922 153.91534782 42.59375 156.0703125 C44.11324891 158.15540267 45.72296957 160.00329172 47.5 161.875 C67.1442784 183.69011351 76.57919059 207.75087496 76 237 C71.38 237 66.76 237 62 237 C61.98582031 235.741875 61.97164063 234.48375 61.95703125 233.1875 C61.30820292 204.9551492 49.13763614 184.21738604 30 164 C28.88238281 163.08927734 28.88238281 163.08927734 27.7421875 162.16015625 C26 160 26 160 25.51953125 156.671875 C26.0811712 152.37966726 27.40430068 149.9132477 29.6875 146.25 C30.43034243 145.01367113 31.16990944 143.77536854 31.90625 142.53515625 C32.2671875 141.93203613 32.628125 141.32891602 33 140.70751953 C39.55051319 129.52239032 44.67218089 115.06905503 45 102 C45.05027344 100.91976562 45.10054688 99.83953125 45.15234375 98.7265625 C45.84377825 72.34142183 36.11541538 48.61331281 17.9375 29.4375 C10.82858767 22.51723199 2.55859015 16.76949733 -6.32421875 12.34375 C-9 11 -9 11 -11 9 C-11.4667512 5.42157414 -11.40228636 3.62756672 -9.4375 0.5625 C-5.94089101 -1.67891602 -4.0025769 -0.87012541 0 0 Z " fill="#080509" transform="translate(331,763)"/>
<path d="M0 0 C5.57391944 4.57126082 10.43008681 9.92181826 11.26171875 17.33203125 C11.1590599 20.59009888 10.84132784 22.99550555 8.7109375 25.5390625 C6.88205819 26.95189343 5.07257346 27.97697471 3 29 C2.26394531 29.36867188 1.52789063 29.73734375 0.76953125 30.1171875 C-12.18111786 35.90589526 -29.87747538 37.58043066 -43.5625 33.3125 C-48.43977085 31.41356258 -52.79825086 29.11713276 -57 26 C-57.60457031 25.55914063 -58.20914063 25.11828125 -58.83203125 24.6640625 C-66.11833337 18.91756715 -72.64067029 9.49457529 -74.5625 0.3125 C-73.69828555 -3.24038164 -71.78101239 -4.70264194 -69 -7 C-50.81128702 -18.07139051 -16.30019335 -12.29293695 0 0 Z " fill="#FBC1DC" transform="translate(636,499)"/>
<path d="M0 0 C7.608475 4.10549388 10.4712966 11.10675984 13 19 C13.24621094 19.75667969 13.49242187 20.51335937 13.74609375 21.29296875 C17.13248303 34.48820974 16.11927814 49.47605169 11 62 C10.34 62 9.68 62 9 62 C7.73828125 60.05859375 7.73828125 60.05859375 6.3125 57.4375 C-1.49868303 44.09261139 -14.60304805 37.53251342 -29 33 C-47.38778907 28.27941845 -71.82603346 28.41301673 -89 37 C-89.32120161 28.29186755 -88.73358662 20.60754992 -84 13 C-80.19224673 9.12789034 -76.46180935 6.36665246 -71.0625 5.5625 C-64.32623599 5.72323515 -57.56110013 9.35249581 -51.54296875 12.13671875 C-42.72883254 15.12892167 -32.9793578 13.38166948 -24.79296875 9.50390625 C-21.17505183 7.55579714 -17.63054056 5.52662479 -14.15625 3.33203125 C-9.51348041 0.46394351 -5.54521117 -1.25798801 0 0 Z " fill="#A2A1F2" transform="translate(648,444)"/>
<path d="M0 0 C1.65 0 3.3 0 5 0 C7.01062616 5.97184602 9.00238435 11.94974881 10.98144531 17.93212891 C11.65620009 19.96447994 12.33518496 21.99543183 13.01855469 24.02490234 C14.00283387 26.95047852 14.97154644 29.88082969 15.9375 32.8125 C16.24373291 33.71178223 16.54996582 34.61106445 16.86547852 35.53759766 C18.99338898 42.06873533 20.54032172 47.86011341 17.375 54.3125 C13.64193687 58.53675565 10.61075742 59.7698918 5.0625 60.5625 C0.72127676 60.42057539 -1.57978499 58.40539639 -4.65234375 55.5078125 C-7.78615513 52.00157716 -7.29159563 48.40817763 -7.25390625 43.90429688 C-6.71351452 35.59473478 -5.01178631 27.42785077 -3.5 19.25 C-3.16180648 17.37777623 -2.8245593 15.50538126 -2.48828125 13.6328125 C-1.66974883 9.08649477 -0.83845335 4.54268416 0 0 Z " fill="#EBE3E8" transform="translate(571,836)"/>
<path d="M0 0 C10.06529942 2.70932806 16.47577912 7.71815558 22.421875 16.109375 C26.27108667 23.15991122 27.50746067 29.77448381 27.4375 37.75 C27.4674707 38.98556641 27.4674707 38.98556641 27.49804688 40.24609375 C27.49477155 44.31405156 27.30544023 46.49309919 25.1640625 50.046875 C23 52 23 52 19.9375 52.5 C16.68857974 51.9469923 15.97491373 51.52596037 14 49 C13.72284521 46.0767463 13.58968241 43.29976788 13.5625 40.375 C13.28136658 31.83684252 12.13896683 25.9024993 6.6875 19.125 C2.15565714 15.54168239 -2.04416782 13.97932216 -7.75 13.5625 C-11.73721005 13.20868614 -11.73721005 13.20868614 -14.125 11.3125 C-15.32775902 8.13377973 -14.96271775 6.231981 -14 3 C-10.50730905 -1.67161186 -5.28759021 -0.62370002 0 0 Z " fill="#070507" transform="translate(284,499)"/>
<path d="M0 0 C3.33600367 2.05838525 4.8262176 3.7393264 7 7 C7.52163829 10.9122872 7.16707549 12.69568393 5.25 16.1875 C2.12194954 20.09756307 0.66118312 21.7538988 -4.375 22.5 C-9.7024463 21.76517982 -12.15217625 19.41020489 -15.4375 15.125 C-16.31927745 11.79384074 -15.81612906 9.32281116 -15 6 C-10.86214771 -0.14003888 -7.13252261 -0.91316033 0 0 Z " fill="#090708" transform="translate(365,353)"/>
<path d="M0 0 C2.93038162 1.2469709 4.41759241 2.22345655 6.3125 4.75 C7.61256399 9.00475488 7.55961335 12.63205625 5.875 16.75 C3.46294353 19.64446777 1.56347797 20.76648839 -2 22 C-6.5357202 22 -8.39366337 21.51406801 -11.875 18.5625 C-14.86901467 14.95207054 -15.33599932 12.7724257 -15.29296875 8.0390625 C-14.83745033 4.86865433 -13.24684343 3.1807598 -11 1 C-7.5507568 -0.7246216 -3.77868569 -0.36610104 0 0 Z " fill="#060505" transform="translate(337,300)"/>
<path d="M0 0 C2.86048873 1.34996038 3.85130352 2.47528164 6 5 C7.28998174 9.17347032 7.29348391 11.22226764 5.75 15.3125 C4 18 4 18 1 20 C-3.93012739 20.79383407 -7.80794774 20.71523135 -12.125 18.125 C-14.7743543 13.7094095 -14.9961698 10.02201303 -14 5 C-10.5506083 -0.563535 -6.09875533 -1.31836012 0 0 Z " fill="#090608" transform="translate(314,373)"/>
<path d="M0 0 C0.33 0.66 0.66 1.32 1 2 C-0.3125 4.625 -0.3125 4.625 -2 7 C-2.66 7 -3.32 7 -4 7 C-4.103125 7.763125 -4.20625 8.52625 -4.3125 9.3125 C-5.04364039 12.17059424 -5.76951913 13.15742885 -8 15 C-8.99 14.67 -9.98 14.34 -11 14 C-8.93687686 10.33584124 -6.64127824 7.29451872 -3.8125 4.1875 C-3.09707031 3.39730469 -2.38164062 2.60710938 -1.64453125 1.79296875 C-1.10183594 1.20128906 -0.55914062 0.60960937 0 0 Z " fill="#EDBBCE" transform="translate(147,775)"/>
<path d="M0 0 C1.10546875 1.67578125 1.10546875 1.67578125 2 4 C1.42578125 6.54296875 1.42578125 6.54296875 0.3125 9.1875 C-0.21923828 10.50814453 -0.21923828 10.50814453 -0.76171875 11.85546875 C-2 14 -2 14 -5 15 C-3.33333333 10 -1.66666667 5 0 0 Z " fill="#221D1E" transform="translate(692,594)"/>
<path d="M0 0 C0.99 0.33 1.98 0.66 3 1 C1.33333333 2.66666667 -0.33333333 4.33333333 -2 6 C-2.721875 6.763125 -3.44375 7.52625 -4.1875 8.3125 C-6 10 -6 10 -8 10 C-6.56854369 4.98990293 -4.17048478 2.89380576 0 0 Z " fill="#9A96E4" transform="translate(570,452)"/>
<path d="M0 0 C0 3 0 3 -1.6796875 4.82421875 C-2.40414062 5.43910156 -3.12859375 6.05398438 -3.875 6.6875 C-4.59429688 7.31011719 -5.31359375 7.93273437 -6.0546875 8.57421875 C-8 10 -8 10 -10 10 C-9.65514457 7.1157546 -9.21744593 6.1792182 -6.93359375 4.296875 C-6.10988281 3.78640625 -5.28617188 3.2759375 -4.4375 2.75 C-3.61121094 2.22921875 -2.78492188 1.7084375 -1.93359375 1.171875 C-1.29550781 0.78515625 -0.65742187 0.3984375 0 0 Z " fill="#110C19" transform="translate(823,398)"/>
<path d="M0 0 C6.75 0.75 6.75 0.75 9 3 C9.125 6.625 9.125 6.625 9 10 C8.443125 9.278125 7.88625 8.55625 7.3125 7.8125 C5.02090666 5.02542701 2.58540143 2.51358472 0 0 Z " fill="#120C0E" transform="translate(343,550)"/>
<path d="M0 0 C-3.07999946 3.67230705 -5.2482602 4.56802365 -10 5 C-10.33 4.01 -10.66 3.02 -11 2 C-3.57142857 -1.57142857 -3.57142857 -1.57142857 0 0 Z " fill="#EEC8AC" transform="translate(269,464)"/>
<path d="M0 0 C0.33 0.66 0.66 1.32 1 2 C1.66 2.33 2.32 2.66 3 3 C0.36 5.64 -2.28 8.28 -5 11 C-5 7.58678765 -4.33132534 6.60527115 -2.5 3.8125 C-2.0359375 3.09707031 -1.571875 2.38164063 -1.09375 1.64453125 C-0.7328125 1.10183594 -0.371875 0.55914063 0 0 Z " fill="#EAB7CB" transform="translate(688,635)"/>
<path d="M0 0 C1.1875 1.5625 1.1875 1.5625 2 4 C0.625 7.75 0.625 7.75 -1 11 C-1.66 11 -2.32 11 -3 11 C-2.53199289 6.94393835 -2.12046792 3.53411321 0 0 Z " fill="#E492B6" transform="translate(727,338)"/>
<path d="M0 0 C0 0.66 0 1.32 0 2 C-5.94 1.67 -11.88 1.34 -18 1 C-18 0.67 -18 0.34 -18 0 C-15.56288386 -0.19484938 -13.12562602 -0.38115178 -10.6875 -0.5625 C-9.99720703 -0.61857422 -9.30691406 -0.67464844 -8.59570312 -0.73242188 C-5.37487726 -0.96581505 -3.09672655 -1.03224218 0 0 Z " fill="#EFC7B0" transform="translate(294,596)"/>
<path d="M0 0 C0.33 0.66 0.66 1.32 1 2 C-0.3125 4.625 -0.3125 4.625 -2 7 C-2.66 7 -3.32 7 -4 7 C-4.33 7.66 -4.66 8.32 -5 9 C-5 5 -5 5 -2.5 2.25 C-1.675 1.5075 -0.85 0.765 0 0 Z " fill="#E5B3C5" transform="translate(147,775)"/>
<path d="M0 0 C1.32 0.66 2.64 1.32 4 2 C2.35 3.98 0.7 5.96 -1 8 C-1.66 7.34 -2.32 6.68 -3 6 C-2.01 4.02 -1.02 2.04 0 0 Z " fill="#EB98C1" transform="translate(503,439)"/>
<path d="M0 0 C-0.33 0.99 -0.66 1.98 -1 3 C-4.0625 4.1875 -4.0625 4.1875 -7 5 C-6.625 2.5625 -6.625 2.5625 -6 0 C-3.50907189 -1.24546405 -2.58919267 -0.7767578 0 0 Z " fill="#F0C5B0" transform="translate(654,537)"/>
<path d="M0 0 C0.99 0.33 1.98 0.66 3 1 C1.29374499 3.78388975 0.52373261 4.85384206 -2.6875 5.75 C-3.8321875 5.87375 -3.8321875 5.87375 -5 6 C-5 5.34 -5 4.68 -5 4 C-2.6875 1.8125 -2.6875 1.8125 0 0 Z " fill="#EFD877" transform="translate(830,409)"/>
<path d="M0 0 C0.66 0.33 1.32 0.66 2 1 C-0.97 3.475 -0.97 3.475 -4 6 C-4.66 5.67 -5.32 5.34 -6 5 C-6 4.34 -6 3.68 -6 3 C-4.03533587 1.93224776 -2.03144641 0.93446535 0 0 Z " fill="#ECC4A5" transform="translate(379,211)"/>
<path d="M0 0 C0.66 0.33 1.32 0.66 2 1 C-0.06756277 3.7972908 -1.14440371 4.02692273 -4.6875 4.6875 C-5.780625 4.790625 -6.87375 4.89375 -8 5 C-5.45378681 2.99940392 -3.01962385 1.20784954 0 0 Z " fill="#D8ADBE" transform="translate(615,704)"/>
<path d="M0 0 C2.625 0.375 2.625 0.375 5 1 C5.33 2.32 5.66 3.64 6 5 C3.36 4.01 0.72 3.02 -2 2 C-1.34 1.34 -0.68 0.68 0 0 Z " fill="#100D15" transform="translate(440,362)"/>
<path d="M0 0 C0.66 0 1.32 0 2 0 C1.46930939 3.82097239 0.50298434 6.06171403 -2 9 C-1.125 2.25 -1.125 2.25 0 0 Z " fill="#EADA7F" transform="translate(291,279)"/>
<path d="M0 0 C0.66 0.33 1.32 0.66 2 1 C-0.0072908 4.0109362 -0.83884224 4.63016497 -4 6 C-4.66 5.34 -5.32 4.68 -6 4 C-4.02 2.68 -2.04 1.36 0 0 Z " fill="#E4BCA3" transform="translate(368,217)"/>
<path d="M0 0 C0.66 0.33 1.32 0.66 2 1 C0.125 5.75 0.125 5.75 -1 8 C-1.66 8 -2.32 8 -3 8 C-1.125 2.25 -1.125 2.25 0 0 Z " fill="#D8A9C0" transform="translate(378,906)"/>
<path d="M0 0 C2.31 0.33 4.62 0.66 7 1 C7.33 1.99 7.66 2.98 8 4 C5.69 3.67 3.38 3.34 1 3 C0.67 2.01 0.34 1.02 0 0 Z " fill="#E4CD6F" transform="translate(766,722)"/>
<path d="M0 0 C0 3.10551666 -0.5393715 4.35261084 -2 7 C-2.99 7 -3.98 7 -5 7 C-3.70700306 4.11562221 -2.34058637 2.12780579 0 0 Z " fill="#D4A9BD" transform="translate(237,624)"/>
<path d="M0 0 C-0.75 1.9375 -0.75 1.9375 -2 4 C-4.125 4.75 -4.125 4.75 -6 5 C-6 4.01 -6 3.02 -6 2 C-2.25 0 -2.25 0 0 0 Z " fill="#EE9AC4" transform="translate(488,346)"/>
<path d="M0 0 C0 0.33 0 0.66 0 1 C-5.16044765 2.512545 -8.65998179 3.33500455 -14 2 C-14 1.67 -14 1.34 -14 1 C-9.23692563 0.04738513 -4.8333472 -0.08333357 0 0 Z " fill="#B49685" transform="translate(468,186)"/>
</svg>
